<svg xmlns="http://www.w3.org/2000/svg" width="1200" height="630" viewBox="0 0 1200 630" role="img" aria-labelledby="title desc">
  <title id="title">Tinybot — Personal AI. Native tools.</title>
  <desc id="desc">Social preview for Tinybot, a lightweight desktop AI assistant with native tools and plugins.</desc>
  <defs>
    <clipPath id="frame">
      <rect width="1200" height="630" rx="32"/>
    </clipPath>
  </defs>
  <g clip-path="url(#frame)">
    <rect width="1200" height="630" fill="#f7f6f2"/>
    <circle cx="930" cy="327" r="245" fill="none" stroke="#cc785c" stroke-width="2" opacity=".16"/>
    <circle cx="930" cy="327" r="205" fill="none" stroke="#141413" stroke-width="2" opacity=".08" stroke-dasharray="3 13"/>
    <path d="M610 630c165-113 370-132 590-105v105Z" fill="#cc785c" opacity=".08"/>

    <g transform="translate(49 54) scale(.68)">
      <text x="42" y="166" textLength="334" lengthAdjust="spacingAndGlyphs" fill="#141413" font-family="Arial, Helvetica, sans-serif" font-size="132" font-weight="700" letter-spacing="-7">tinyb</text>
      <circle cx="434" cy="124" r="47" fill="#141413"/>
      <circle cx="418" cy="108" r="11" fill="#faf9f5"/>
      <circle cx="474" cy="79" r="8" fill="#cc785c"/>
      <text x="494" y="166" fill="#141413" font-family="Arial, Helvetica, sans-serif" font-size="132" font-weight="700" letter-spacing="-7">t</text>
    </g>

    <text x="78" y="314" fill="#141413" font-family="Arial, Helvetica, sans-serif" font-size="58" font-weight="700" letter-spacing="-2.3">Personal AI.</text>
    <text x="78" y="380" fill="#a9583e" font-family="Arial, Helvetica, sans-serif" font-size="58" font-weight="700" letter-spacing="-2.3">Native tools.</text>
    <text x="81" y="434" fill="#5f5d57" font-family="Arial, Helvetica, sans-serif" font-size="21">Chat, act, and extend from one desktop workspace.</text>
    <text x="81" y="513" fill="#141413" font-family="Arial, Helvetica, sans-serif" font-size="14" font-weight="700" letter-spacing="2.1">OPEN SOURCE   ·   TAURI   ·   AGENT PLUGINS</text>

    <circle cx="930" cy="341" r="174" fill="#141413"/>
    <circle cx="872" cy="283" r="40" fill="#f7f6f2"/>
    <circle cx="1114" cy="129" r="28" fill="#cc785c"/>
  </g>
  <rect x="1" y="1" width="1198" height="628" rx="31" fill="none" stroke="#dedbd4" stroke-width="2"/>
</svg>
